<svg xmlns="http://www.w3.org/2000/svg" xmlns:xlink="http://www.w3.org/1999/xlink" width="500" zoomAndPan="magnify" viewBox="0 0 375 374.999991" height="500" preserveAspectRatio="xMidYMid meet" version="1.0"><defs><g/><clipPath id="2db82a08f9"><path d="M 37.5 37.5 L 337.5 37.5 L 337.5 337.5 L 37.5 337.5 Z M 37.5 37.5 " clip-rule="nonzero"/></clipPath><clipPath id="9a925a49b0"><path d="M 187.5 37.5 C 104.65625 37.5 37.5 104.65625 37.5 187.5 C 37.5 270.34375 104.65625 337.5 187.5 337.5 C 270.34375 337.5 337.5 270.34375 337.5 187.5 C 337.5 104.65625 270.34375 37.5 187.5 37.5 Z M 187.5 37.5 " clip-rule="nonzero"/></clipPath><clipPath id="1dc827bc49"><path d="M 45.617188 45.613281 L 329.382812 45.613281 L 329.382812 329.375 L 45.617188 329.375 Z M 45.617188 45.613281 " clip-rule="nonzero"/></clipPath><clipPath id="9e2ed6524c"><path d="M 45.617188 187.496094 C 45.617188 265.855469 109.140625 329.375 187.5 329.375 C 265.859375 329.375 329.382812 265.855469 329.382812 187.496094 C 329.382812 109.136719 265.859375 45.613281 187.5 45.613281 C 109.140625 45.613281 45.617188 109.136719 45.617188 187.496094 Z M 45.617188 187.496094 " clip-rule="nonzero"/></clipPath><clipPath id="1cf56b8ded"><path d="M 45.617188 45.875 L 329.117188 45.875 L 329.117188 329.375 L 45.617188 329.375 Z M 45.617188 45.875 " clip-rule="nonzero"/></clipPath><clipPath id="00a761d89c"><path d="M 45.617188 187.496094 C 45.617188 265.855469 109.140625 329.375 187.496094 329.375 C 265.855469 329.375 329.375 265.855469 329.375 187.496094 C 329.375 109.140625 265.855469 45.617188 187.496094 45.617188 C 109.140625 45.617188 45.617188 109.140625 45.617188 187.496094 Z M 45.617188 187.496094 " clip-rule="nonzero"/></clipPath><clipPath id="8658a087c6"><path d="M 143.375 171.71875 L 234 171.71875 L 234 243 L 143.375 243 Z M 143.375 171.71875 " clip-rule="nonzero"/></clipPath><clipPath id="9709189e4a"><path d="M 138.257812 149.089844 L 244.007812 149.089844 L 244.007812 202.339844 L 138.257812 202.339844 Z M 138.257812 149.089844 " clip-rule="nonzero"/></clipPath><clipPath id="35aaee8e01"><path d="M 114 112.128906 L 259.476562 112.128906 L 259.476562 212.628906 L 114 212.628906 Z M 114 112.128906 " clip-rule="nonzero"/></clipPath><clipPath id="3c01ab028a"><path d="M 179 261 L 199 261 L 199 274.871094 L 179 274.871094 Z M 179 261 " clip-rule="nonzero"/></clipPath></defs><g clip-path="url(#2db82a08f9)"><g clip-path="url(#9a925a49b0)"><path stroke-linecap="butt" transform="matrix(0.75, 0, 0, 0.75, 37.500002, 37.499998)" fill="none" stroke-linejoin="miter" d="M 200.00001 0.00000328333 C 89.54167 0.00000328333 -0.00000271667 89.541676 -0.00000271667 200.000016 C -0.00000271667 310.458357 89.54167 400.00003 200.00001 400.00003 C 310.458351 400.00003 400.000024 310.458357 400.000024 200.000016 C 400.000024 89.541676 310.458351 0.00000328333 200.00001 0.00000328333 Z M 200.00001 0.00000328333 " stroke="#007a87" stroke-width="10" stroke-opacity="1" stroke-miterlimit="4"/></g></g><path stroke-linecap="butt" transform="matrix(0.75, 0, 0, 0.75, 104.001684, 243.895604)" fill="none" stroke-linejoin="miter" d="M -0.00224543 1.99857 L 225.367561 1.99857 " stroke="#000000" stroke-width="4" stroke-opacity="1" stroke-miterlimit="4"/><g clip-path="url(#1dc827bc49)"><g clip-path="url(#9e2ed6524c)"><path fill="#273f69" d="M 45.617188 329.375 L 45.617188 45.613281 L 329.382812 45.613281 L 329.382812 329.375 Z M 45.617188 329.375 " fill-opacity="1" fill-rule="nonzero"/></g></g><g clip-path="url(#1cf56b8ded)"><g clip-path="url(#00a761d89c)"><path stroke-linecap="butt" transform="matrix(0, -0.75, 0.75, 0, 45.61863, 329.376425)" fill="none" stroke-linejoin="miter" d="M 189.173787 -0.00192374 C 84.694614 -0.00192374 0.00189969 84.695998 0.00189969 189.169964 C 0.00189969 293.649137 84.694614 378.341851 189.173787 378.341851 C 293.647752 378.341851 378.345675 293.649137 378.345675 189.169964 C 378.345675 84.695998 293.647752 -0.00192374 189.173787 -0.00192374 Z M 189.173787 -0.00192374 " stroke="#007a87" stroke-width="128" stroke-opacity="1" stroke-miterlimit="4"/></g></g><g fill="#ffffff" fill-opacity="1"><g transform="translate(131.844254, 306.649294)"><g><path d="M 14.609375 3.671875 C 14.765625 3.25 15.40625 1.984375 15.640625 1.609375 C 16.328125 0.515625 16.328125 0.515625 16.40625 0.328125 C 16.625 -0.25 16.3125 -0.828125 15.640625 -1.078125 C 15.359375 -1.1875 15.328125 -1.203125 14.65625 -1.234375 C 14.1875 -1.265625 13.875 -1.34375 13.546875 -1.484375 C 11.234375 -2.375 11.140625 -4.53125 13.15625 -9.765625 C 14.03125 -12.015625 15.34375 -14.71875 15.96875 -15.53125 C 16.6875 -16.484375 17.375 -16.75 18.25 -16.421875 C 18.609375 -16.28125 18.875 -16.046875 19 -15.671875 C 19.4375 -14.796875 19.484375 -14.71875 19.953125 -14.53125 C 20.734375 -14.234375 21.421875 -14.4375 21.640625 -15.015625 C 21.703125 -15.1875 21.734375 -15.40625 21.828125 -15.6875 C 22.203125 -17.578125 22.5 -18.734375 23 -19.96875 C 23.203125 -20.46875 23.234375 -20.71875 23.03125 -21.015625 C 22.625 -21.625 21.5 -22.359375 20.1875 -22.875 C 16.578125 -24.265625 13.328125 -23.765625 10.671875 -21.3125 C 9.046875 -19.828125 6.890625 -16.171875 5.4375 -12.421875 C 3.125 -6.4375 3.015625 -2.5 5.125 0.71875 C 6.140625 2.28125 7.71875 3.484375 9.84375 4.3125 C 12.421875 5.3125 13.9375 5.4375 14.234375 4.65625 Z M 14.609375 3.671875 "/></g></g></g><g fill="#ffffff" fill-opacity="1"><g transform="translate(152.105577, 313.975867)"><g><path d="M 2.53125 -4.28125 C 2.046875 -2.03125 2.046875 -2 1.75 -1.609375 C 1.15625 -0.9375 1.15625 -0.9375 1.09375 -0.625 C 0.953125 0.046875 1.25 0.53125 1.953125 0.671875 C 2.25 0.734375 2.703125 0.796875 3.203125 0.875 C 3.828125 0.96875 7.75 1.640625 8.484375 1.796875 C 9.640625 2.046875 11.75 2.578125 12.359375 2.78125 C 12.828125 2.921875 13.1875 3.03125 13.40625 3.078125 C 14.078125 3.21875 14.515625 2.859375 14.6875 2.078125 C 15.03125 0.296875 15.453125 -0.984375 16.140625 -2.296875 C 16.25 -2.546875 16.34375 -2.78125 16.375 -2.953125 C 16.5 -3.515625 15.96875 -4.140625 15.21875 -4.3125 C 14.84375 -4.390625 14.578125 -4.328125 13.625 -4.03125 C 13.0625 -3.796875 12.703125 -3.8125 11.828125 -4 C 10.5625 -4.265625 10.40625 -4.453125 10.609375 -5.40625 L 13.90625 -20.890625 C 14.375 -23.109375 14.390625 -23.1875 14.6875 -23.546875 C 15.296875 -24.265625 15.296875 -24.265625 15.359375 -24.59375 C 15.484375 -25.1875 15.1875 -25.6875 14.59375 -25.828125 C 14.421875 -25.859375 14.078125 -25.890625 13.734375 -25.921875 C 13.0625 -25.96875 12.09375 -26.109375 11.0625 -26.328125 C 10.203125 -26.5 9.6875 -26.65625 8.875 -26.953125 C 8.4375 -27.09375 8.109375 -27.203125 7.828125 -27.265625 C 7.1875 -27.390625 6.71875 -27.0625 6.59375 -26.46875 C 6.546875 -26.21875 6.53125 -26.015625 6.59375 -25.921875 C 6.671875 -25.53125 6.71875 -25.234375 6.828125 -25.015625 C 6.84375 -24.703125 6.796875 -24.484375 6.703125 -23.890625 L 6.40625 -22.484375 Z M 2.53125 -4.28125 "/></g></g></g><g fill="#ffffff" fill-opacity="1"><g transform="translate(173.561361, 318.260628)"><g><path d="M 12.1875 -5.421875 C 13.65625 -5.390625 14 -4.796875 13.953125 -2.640625 C 13.953125 -2.203125 13.796875 -1.6875 13.5625 -1.359375 C 13.25 -0.8125 13.25 -0.8125 13.234375 -0.53125 C 13.21875 0.046875 13.640625 0.515625 14.1875 0.53125 C 14.40625 0.53125 14.765625 0.515625 15.15625 0.46875 C 15.734375 0.421875 17.140625 0.375 18.03125 0.390625 C 18.90625 0.421875 20.046875 0.515625 20.703125 0.59375 C 21.09375 0.65625 21.453125 0.6875 21.671875 0.703125 C 22.171875 0.703125 22.53125 0.28125 22.546875 -0.328125 C 22.5625 -0.65625 22.53125 -0.796875 22.203125 -1.25 C 21.859375 -1.75 21.8125 -2.03125 21.71875 -2.953125 C 20.984375 -10.703125 19.890625 -16.8125 18.25 -22.078125 C 16.75 -26.828125 16.21875 -27.953125 15.3125 -27.96875 C 15.140625 -27.984375 14.875 -27.953125 14.59375 -27.90625 C 13.515625 -27.796875 13.15625 -27.765625 12.078125 -27.796875 C 10.8125 -27.828125 10.171875 -27.875 9.125 -28.03125 C 8.875 -28.078125 8.609375 -28.125 8.40625 -28.125 C 7.78125 -28.140625 7.40625 -27.8125 6.96875 -26.96875 C 6 -25.078125 4.25 -20.046875 3.359375 -16.671875 C 2.375 -12.875 1.28125 -7.5625 0.890625 -4.59375 C 0.671875 -2.828125 0.546875 -2.359375 0.328125 -2.015625 C -0.21875 -1.109375 -0.21875 -1.109375 -0.234375 -0.828125 C -0.25 -0.25 0.140625 0.25 0.578125 0.265625 C 0.75 0.265625 1.109375 0.25 1.578125 0.171875 C 1.875 0.125 3.203125 0.078125 3.8125 0.078125 C 4.421875 0.09375 5.328125 0.203125 5.9375 0.3125 C 6.34375 0.359375 6.65625 0.390625 6.875 0.40625 C 7.375 0.40625 7.734375 -0.046875 7.75 -0.6875 C 7.765625 -0.984375 7.734375 -1.046875 7.484375 -1.453125 C 7.3125 -1.78125 7.203125 -2.109375 7.21875 -2.5 C 7.265625 -4.953125 7.65625 -5.515625 9.203125 -5.484375 Z M 9.765625 -11.671875 C 8.796875 -11.6875 8.515625 -11.90625 8.53125 -12.59375 C 8.5625 -13.671875 8.953125 -15.46875 9.671875 -17.65625 C 10.453125 -19.984375 10.671875 -20.484375 11.03125 -20.46875 C 11.390625 -20.46875 11.703125 -19.765625 12.171875 -18.015625 C 12.75 -15.859375 13.15625 -13.5 13.140625 -12.5 C 13.125 -11.8125 12.796875 -11.59375 11.921875 -11.625 Z M 9.765625 -11.671875 "/></g></g></g><g fill="#ffffff" fill-opacity="1"><g transform="translate(202.432962, 318.047299)"><g><path d="M 4.15625 -29.828125 C -1.3125 -28.859375 -3.921875 -24.671875 -2.84375 -18.640625 C -2.3125 -15.625 -1 -13.609375 1.078125 -12.625 C 2.453125 -11.96875 3.703125 -11.625 6.859375 -11.125 C 8.171875 -10.9375 8.703125 -10.5 8.875 -9.515625 C 9.09375 -8.34375 8.484375 -7.578125 7.21875 -7.34375 C 5.75 -7.09375 3.96875 -7.328125 2.09375 -7.984375 C 1 -8.40625 0.65625 -8.453125 0.21875 -8.375 C -0.34375 -8.265625 -0.796875 -7.671875 -0.6875 -7.140625 C -0.65625 -6.9375 -0.578125 -6.65625 -0.40625 -6.375 C 0.25 -4.9375 0.6875 -3.375 1.03125 -1.421875 C 1.203125 -0.5 1.625 -0.140625 2.40625 -0.28125 C 2.640625 -0.328125 2.78125 -0.390625 3.015625 -0.53125 C 3.375 -0.796875 3.4375 -0.84375 3.609375 -0.875 C 3.765625 -0.890625 3.90625 -0.890625 4.046875 -0.875 C 6.25 -0.65625 7.1875 -0.703125 8.953125 -1.015625 C 14.421875 -2 17.015625 -5.84375 16 -11.53125 C 15.546875 -14.078125 14.578125 -16.03125 13.046875 -17.390625 C 11.796875 -18.59375 9.90625 -19.328125 6.9375 -19.78125 C 4.640625 -20.09375 4.0625 -20.4375 3.859375 -21.53125 C 3.65625 -22.6875 4.328125 -23.515625 5.734375 -23.765625 C 6.828125 -23.96875 8.59375 -23.796875 9.828125 -23.375 C 10.8125 -22.984375 10.953125 -22.984375 11.359375 -23.046875 C 11.984375 -23.15625 12.421875 -23.671875 12.3125 -24.203125 C 12.28125 -24.390625 12.203125 -24.671875 12.078125 -24.9375 C 11.609375 -25.96875 11.1875 -27.515625 10.84375 -29.4375 C 10.703125 -30.203125 10.203125 -30.59375 9.453125 -30.46875 C 9.25 -30.421875 9.03125 -30.328125 8.796875 -30.171875 C 8.546875 -29.984375 8.484375 -29.921875 8.390625 -29.90625 C 8.28125 -29.890625 8.140625 -29.859375 8.015625 -29.890625 C 6.265625 -30.09375 5.484375 -30.0625 4.15625 -29.828125 Z M 4.15625 -29.828125 "/></g></g></g><g fill="#ffffff" fill-opacity="1"><g transform="translate(226.46938, 313.178058)"><g><path d="M -1.296875 -30.078125 C -6.484375 -28.140625 -8.328125 -23.5625 -6.171875 -17.828125 C -5.109375 -14.96875 -3.453125 -13.21875 -1.21875 -12.609375 C 0.265625 -12.21875 1.546875 -12.109375 4.75 -12.1875 C 6.0625 -12.234375 6.65625 -11.90625 7.015625 -10.96875 C 7.421875 -9.859375 6.984375 -8.984375 5.765625 -8.53125 C 4.375 -8.015625 2.578125 -7.921875 0.609375 -8.234375 C -0.546875 -8.4375 -0.890625 -8.4375 -1.296875 -8.28125 C -1.84375 -8.078125 -2.15625 -7.421875 -1.96875 -6.90625 C -1.890625 -6.71875 -1.75 -6.453125 -1.546875 -6.1875 C -0.65625 -4.90625 0.0625 -3.4375 0.765625 -1.578125 C 1.09375 -0.703125 1.5625 -0.4375 2.296875 -0.71875 C 2.53125 -0.8125 2.671875 -0.875 2.875 -1.078125 C 3.171875 -1.390625 3.234375 -1.4375 3.390625 -1.5 C 3.53125 -1.5625 3.6875 -1.578125 3.828125 -1.578125 C 6.03125 -1.796875 6.953125 -1.984375 8.625 -2.609375 C 13.828125 -4.5625 15.6875 -8.828125 13.671875 -14.21875 C 12.75 -16.65625 11.4375 -18.390625 9.6875 -19.46875 C 8.25 -20.421875 6.25 -20.796875 3.234375 -20.703125 C 0.921875 -20.609375 0.296875 -20.828125 -0.078125 -21.875 C -0.5 -22.984375 0 -23.90625 1.34375 -24.421875 C 2.390625 -24.796875 4.15625 -24.96875 5.4375 -24.75 C 6.484375 -24.578125 6.625 -24.59375 7 -24.734375 C 7.59375 -24.953125 7.921875 -25.53125 7.734375 -26.046875 C 7.65625 -26.21875 7.546875 -26.46875 7.375 -26.703125 C 6.71875 -27.625 6.03125 -29.09375 5.34375 -30.921875 C 5.078125 -31.65625 4.484375 -31.9375 3.78125 -31.671875 C 3.578125 -31.59375 3.40625 -31.453125 3.203125 -31.28125 C 2.984375 -31.03125 2.9375 -30.953125 2.828125 -30.921875 C 2.734375 -30.890625 2.59375 -30.828125 2.484375 -30.84375 C 0.71875 -30.71875 -0.015625 -30.5625 -1.296875 -30.078125 Z M -1.296875 -30.078125 "/></g></g></g><g fill="#ffffff" fill-opacity="1"><g transform="translate(137.819248, 93.832382)"><g><path d="M -2.71875 -28.296875 C -7.53125 -26.203125 -9.015625 -21.796875 -6.71875 -16.5 C -5.5625 -13.84375 -3.90625 -12.28125 -1.78125 -11.828125 C -0.359375 -11.515625 0.84375 -11.5 3.859375 -11.75 C 5.125 -11.84375 5.6875 -11.5625 6.0625 -10.6875 C 6.515625 -9.65625 6.125 -8.828125 5.015625 -8.34375 C 3.734375 -7.78125 2.03125 -7.59375 0.171875 -7.796875 C -0.9375 -7.9375 -1.265625 -7.90625 -1.625 -7.75 C -2.140625 -7.53125 -2.40625 -6.890625 -2.203125 -6.421875 C -2.125 -6.234375 -1.984375 -6 -1.765625 -5.765625 C -0.875 -4.609375 -0.125 -3.25 0.625 -1.53125 C 0.984375 -0.71875 1.46875 -0.484375 2.15625 -0.78125 C 2.375 -0.875 2.484375 -0.96875 2.65625 -1.15625 C 2.9375 -1.46875 2.96875 -1.515625 3.125 -1.59375 C 3.265625 -1.640625 3.40625 -1.671875 3.515625 -1.6875 C 5.578125 -1.984375 6.453125 -2.21875 8.015625 -2.890625 C 12.8125 -4.984375 14.34375 -9.125 12.171875 -14.109375 C 11.1875 -16.34375 9.890625 -17.921875 8.1875 -18.84375 C 6.75 -19.65625 4.859375 -19.90625 2.015625 -19.6875 C -0.140625 -19.484375 -0.75 -19.65625 -1.15625 -20.625 C -1.609375 -21.65625 -1.1875 -22.546875 0.0625 -23.078125 C 1.03125 -23.515625 2.671875 -23.75 3.90625 -23.625 C 4.890625 -23.5 5.03125 -23.515625 5.359375 -23.671875 C 5.9375 -23.921875 6.21875 -24.484375 6.015625 -24.953125 C 5.9375 -25.109375 5.796875 -25.34375 5.625 -25.5625 C 4.96875 -26.390625 4.21875 -27.71875 3.484375 -29.40625 C 3.1875 -30.09375 2.640625 -30.34375 2 -30.0625 C 1.8125 -29.984375 1.65625 -29.84375 1.46875 -29.640625 C 1.28125 -29.40625 1.21875 -29.359375 1.125 -29.3125 C 1.03125 -29.265625 0.90625 -29.21875 0.8125 -29.203125 C -0.84375 -29 -1.546875 -28.8125 -2.71875 -28.296875 Z M -2.71875 -28.296875 "/></g></g></g><g fill="#ffffff" fill-opacity="1"><g transform="translate(153.900959, 86.363124)"><g><path d="M 0.578125 -4.65625 C 1.015625 -2.53125 1.015625 -2.53125 0.890625 -2.109375 C 0.65625 -1.28125 0.65625 -1.28125 0.71875 -0.9375 C 0.828125 -0.40625 1.28125 -0.046875 1.75 -0.140625 C 1.921875 -0.171875 2.09375 -0.25 2.390625 -0.34375 C 2.703125 -0.484375 3.828125 -0.78125 4.359375 -0.890625 C 4.921875 -1 5.4375 -1.078125 6.03125 -1.046875 C 6.34375 -1.078125 6.609375 -1.109375 6.78125 -1.140625 C 7.296875 -1.25 7.59375 -1.734375 7.46875 -2.328125 C 7.421875 -2.53125 7.359375 -2.6875 7.28125 -2.765625 C 7.046875 -3.03125 6.875 -3.296875 6.734375 -3.453125 C 6.59375 -3.703125 6.53125 -3.90625 6.421875 -4.4375 L 6.140625 -5.796875 L 4.3125 -14.75 C 4.1875 -15.375 4.234375 -15.484375 4.53125 -15.546875 C 4.734375 -15.578125 4.90625 -15.46875 5.046875 -15.21875 L 10.453125 -5.53125 C 10.890625 -4.796875 11.328125 -4.5 11.9375 -4.609375 C 12.578125 -4.75 12.890625 -5.203125 12.96875 -5.984375 L 14.28125 -17.21875 C 14.28125 -17.375 14.421875 -17.5625 14.5625 -17.578125 C 14.828125 -17.640625 14.984375 -17.421875 15.125 -16.75 L 16.90625 -7.984375 C 17.34375 -5.828125 17.34375 -5.828125 17.21875 -5.40625 C 16.96875 -4.578125 16.96875 -4.578125 17.03125 -4.265625 C 17.140625 -3.703125 17.609375 -3.34375 18.09375 -3.453125 C 18.265625 -3.484375 18.546875 -3.5625 18.78125 -3.65625 C 19.3125 -3.875 20.140625 -4.109375 21.015625 -4.28125 C 21.78125 -4.4375 22.5 -4.53125 23.15625 -4.546875 C 23.46875 -4.578125 23.765625 -4.609375 23.9375 -4.640625 C 24.5 -4.75 24.78125 -5.234375 24.65625 -5.828125 C 24.609375 -6.03125 24.546875 -6.203125 24.46875 -6.28125 L 23.90625 -6.953125 C 23.78125 -7.21875 23.75 -7.421875 23.59375 -7.96875 L 23.328125 -9.296875 L 19.8125 -26.53125 L 19.546875 -27.859375 C 19.4375 -28.578125 19.40625 -28.84375 19.5 -29.140625 C 19.734375 -29.9375 19.734375 -29.9375 19.671875 -30.25 C 19.546875 -30.84375 19.109375 -31.15625 18.546875 -31.046875 C 18.375 -31.015625 18.015625 -30.921875 17.703125 -30.828125 C 17.09375 -30.59375 15.984375 -30.296875 15.1875 -30.125 C 14.421875 -29.96875 13.828125 -29.890625 13.203125 -29.90625 C 12.890625 -29.875 12.609375 -29.828125 12.453125 -29.796875 C 11.34375 -29.578125 11.046875 -28.3125 10.546875 -20.890625 C 10.40625 -18.734375 10.3125 -18.328125 9.953125 -18.25 C 9.453125 -18.15625 9.140625 -18.6875 6.96875 -22.796875 C 4.21875 -28.125 4.21875 -28.125 3.328125 -27.9375 C 3.1875 -27.90625 2.890625 -27.828125 2.609375 -27.71875 C 2.109375 -27.53125 1.296875 -27.296875 0.703125 -27.171875 C 0.140625 -27.0625 -1.96875 -26.75 -2.4375 -26.71875 C -2.859375 -26.65625 -3.3125 -26.59375 -3.5 -26.546875 C -4.109375 -26.421875 -4.390625 -25.953125 -4.265625 -25.359375 C -4.21875 -25.15625 -4.15625 -25 -4.078125 -24.921875 L -3.8125 -24.59375 L -3.53125 -24.234375 C -3.390625 -23.984375 -3.359375 -23.78125 -3.203125 -23.21875 L -2.9375 -21.890625 Z M 0.578125 -4.65625 "/></g></g></g><g fill="#ffffff" fill-opacity="1"><g transform="translate(179.908015, 81.380789)"><g><path d="M 11.53125 -5.078125 C 12.921875 -5.046875 13.25 -4.484375 13.203125 -2.4375 C 13.1875 -2.03125 13.03125 -1.546875 12.828125 -1.234375 C 12.515625 -0.71875 12.515625 -0.71875 12.5 -0.453125 C 12.484375 0.09375 12.890625 0.53125 13.390625 0.546875 C 13.59375 0.546875 13.9375 0.53125 14.3125 0.515625 C 14.859375 0.4375 16.1875 0.421875 17.03125 0.4375 C 17.84375 0.453125 18.9375 0.546875 19.546875 0.640625 C 19.921875 0.6875 20.265625 0.71875 20.46875 0.734375 C 20.9375 0.734375 21.28125 0.34375 21.296875 -0.234375 C 21.3125 -0.546875 21.28125 -0.671875 20.984375 -1.09375 C 20.65625 -1.578125 20.59375 -1.84375 20.515625 -2.703125 C 19.84375 -10.046875 18.84375 -15.8125 17.3125 -20.78125 C 15.921875 -25.265625 15.40625 -26.328125 14.5625 -26.34375 C 14.390625 -26.34375 14.15625 -26.328125 13.875 -26.296875 C 12.859375 -26.1875 12.515625 -26.171875 11.5 -26.1875 C 10.3125 -26.21875 9.703125 -26.265625 8.71875 -26.4375 C 8.46875 -26.46875 8.234375 -26.515625 8.03125 -26.515625 C 7.453125 -26.53125 7.109375 -26.234375 6.671875 -25.4375 C 5.75 -23.65625 4.09375 -18.90625 3.234375 -15.734375 C 2.28125 -12.15625 1.234375 -7.140625 0.859375 -4.34375 C 0.640625 -2.671875 0.53125 -2.234375 0.3125 -1.90625 C -0.203125 -1.046875 -0.203125 -1.046875 -0.21875 -0.78125 C -0.234375 -0.234375 0.140625 0.234375 0.546875 0.25 C 0.71875 0.25 1.046875 0.234375 1.5 0.171875 C 1.765625 0.109375 3.03125 0.078125 3.609375 0.09375 C 4.1875 0.109375 5.03125 0.1875 5.609375 0.3125 C 5.984375 0.359375 6.296875 0.390625 6.5 0.40625 C 6.96875 0.40625 7.3125 -0.015625 7.328125 -0.625 C 7.34375 -0.90625 7.3125 -0.96875 7.078125 -1.34375 C 6.921875 -1.671875 6.828125 -1.96875 6.828125 -2.34375 C 6.890625 -4.65625 7.25 -5.1875 8.703125 -5.15625 Z M 9.25 -10.984375 C 8.34375 -11.015625 8.078125 -11.21875 8.09375 -11.859375 C 8.125 -12.890625 8.5 -14.59375 9.203125 -16.640625 C 9.9375 -18.828125 10.15625 -19.296875 10.5 -19.296875 C 10.84375 -19.28125 11.125 -18.625 11.5625 -16.984375 C 12.09375 -14.9375 12.46875 -12.703125 12.453125 -11.75 C 12.4375 -11.109375 12.109375 -10.921875 11.296875 -10.9375 Z M 9.25 -10.984375 "/></g></g></g><g fill="#ffffff" fill-opacity="1"><g transform="translate(201.579161, 82.019749)"><g><path d="M 2.46875 -4 L 2.171875 -2.671875 C 1.96875 -1.984375 1.875 -1.75 1.6875 -1.5 C 1.125 -0.859375 1.125 -0.859375 1.046875 -0.5625 C 0.921875 0 1.1875 0.515625 1.703125 0.640625 C 1.875 0.6875 2.140625 0.71875 2.421875 0.734375 C 3.046875 0.734375 3.609375 0.84375 4.40625 1.015625 C 5.328125 1.234375 6.34375 1.546875 6.859375 1.734375 C 7.1875 1.84375 7.46875 1.953125 7.640625 1.984375 C 8.171875 2.109375 8.625 1.796875 8.75 1.234375 C 8.796875 1.046875 8.796875 0.859375 8.78125 0.703125 C 8.6875 0.3125 8.625 0.15625 8.546875 -0.15625 C 8.53125 -0.390625 8.578125 -0.59375 8.671875 -1.15625 L 8.96875 -2.484375 L 9.84375 -6.21875 C 10.015625 -6.953125 10.15625 -7.109375 10.5 -7.03125 C 10.953125 -6.921875 11.46875 -6.21875 11.953125 -5.03125 C 12.515625 -3.5625 12.96875 -0.234375 12.71875 0.84375 C 12.671875 1.046875 12.671875 1.046875 12.34375 1.46875 C 12.1875 1.609375 12.109375 1.8125 12.078125 1.96875 C 11.9375 2.53125 12.234375 3.0625 12.734375 3.171875 C 12.9375 3.21875 13.203125 3.25 13.546875 3.296875 C 14.171875 3.328125 15.171875 3.53125 16.21875 3.765625 C 17.125 3.96875 17.796875 4.15625 18.328125 4.40625 C 18.609375 4.5 18.859375 4.59375 19.03125 4.625 C 19.5625 4.75 19.984375 4.390625 20.140625 3.75 C 20.203125 3.5 20.1875 3.4375 20.015625 2.984375 C 19.84375 2.5 19.78125 2.28125 19.8125 1.234375 C 19.90625 -1.546875 19.296875 -4.59375 18.25 -6.59375 C 17.796875 -7.3125 17.796875 -7.3125 17.8125 -7.40625 C 17.84375 -7.546875 18.046875 -7.65625 18.796875 -7.859375 C 20.765625 -8.390625 22.234375 -10.359375 22.921875 -13.34375 C 24.171875 -18.71875 21.8125 -22.375 16.28125 -23.65625 C 15.84375 -23.75 15.171875 -23.875 14.375 -24.03125 C 11.453125 -24.53125 11.453125 -24.53125 10.75 -24.6875 C 10.015625 -24.859375 9.40625 -25.03125 8.703125 -25.34375 C 8.34375 -25.46875 8.046875 -25.5625 7.796875 -25.625 C 7.28125 -25.75 6.828125 -25.453125 6.703125 -24.859375 C 6.65625 -24.671875 6.625 -24.5 6.65625 -24.359375 C 6.796875 -24.015625 6.78125 -23.984375 6.890625 -23.53125 C 6.90625 -23.25 6.859375 -23.046875 6.765625 -22.46875 L 6.453125 -21.140625 Z M 12.453125 -17.453125 C 12.609375 -18.140625 12.859375 -18.3125 13.59375 -18.140625 C 15.84375 -17.609375 16.609375 -16.5625 16.140625 -14.5625 C 15.703125 -12.6875 14.546875 -11.875 12.796875 -12.28125 C 11.53125 -12.578125 11.34375 -12.703125 11.515625 -13.4375 Z M 12.453125 -17.453125 "/></g></g></g><g fill="#ffffff" fill-opacity="1"><g transform="translate(222.192137, 87.038656)"><g><path d="M 18.84375 -12.8125 C 19.0625 -13.3125 19.34375 -13.359375 20.078125 -13.03125 C 20.578125 -12.8125 21.015625 -12.5 21.3125 -12.09375 C 21.890625 -11.296875 21.921875 -11.28125 22.296875 -11.109375 C 22.921875 -10.84375 23.46875 -10.96875 23.671875 -11.453125 C 23.75 -11.609375 23.796875 -11.8125 23.859375 -12.046875 C 24.171875 -13.703125 24.46875 -14.625 25.1875 -16.34375 C 25.734375 -17.578125 25.65625 -17.953125 24.75 -18.34375 C 24.5 -18.453125 24.0625 -18.609375 23.59375 -18.78125 C 22.359375 -19.234375 19.453125 -20.390625 17.765625 -21.140625 C 15.984375 -21.90625 13.953125 -22.875 12.828125 -23.515625 C 12.578125 -23.671875 12.296875 -23.796875 12.109375 -23.875 C 11.515625 -24.125 11.0625 -23.921875 10.765625 -23.25 C 10.09375 -21.640625 9.296875 -20.25 8.25 -18.875 C 8.109375 -18.734375 8 -18.5625 7.9375 -18.40625 C 7.71875 -17.921875 8.03125 -17.40625 8.640625 -17.140625 C 9.03125 -16.96875 9.203125 -16.984375 9.625 -17.03125 C 10.453125 -17.125 10.859375 -17.0625 11.609375 -16.734375 C 12.328125 -16.421875 12.421875 -16.21875 12.078125 -15.421875 L 6.265625 -2.125 L 5.71875 -0.875 C 5.40625 -0.21875 5.296875 -0.046875 5.046875 0.15625 C 4.359375 0.71875 4.359375 0.71875 4.234375 1 C 4 1.53125 4.1875 2.046875 4.71875 2.28125 C 4.96875 2.390625 5.296875 2.5 5.640625 2.609375 C 6.3125 2.796875 7.203125 3.15625 7.96875 3.484375 C 8.75 3.828125 9.546875 4.21875 10.03125 4.53125 C 10.34375 4.703125 10.578125 4.84375 10.765625 4.921875 C 11.265625 5.140625 11.765625 4.921875 12 4.390625 C 12.078125 4.203125 12.125 4.03125 12.09375 3.875 C 12.046875 3.5 12.0625 3.453125 12.03125 3 C 12.078125 2.75 12.171875 2.5625 12.359375 2.03125 L 12.90625 0.78125 Z M 18.84375 -12.8125 "/></g></g></g><g clip-path="url(#8658a087c6)"><path fill="#007a87" d="M 233.9375 191.015625 C 233.9375 165.96875 213.386719 145.414062 188.335938 146.058594 C 164.574219 146.699219 144.660156 165.96875 144.019531 189.089844 C 143.375 204.503906 150.441406 218.636719 162.003906 226.984375 C 167.140625 230.839844 169.710938 236.621094 169.710938 242.398438 L 208.246094 242.398438 C 208.246094 236.621094 210.816406 230.839844 215.3125 226.984375 C 226.875 219.277344 233.9375 205.789062 233.9375 191.015625 Z M 233.9375 191.015625 " fill-opacity="1" fill-rule="nonzero"/></g><g clip-path="url(#9709189e4a)"><path fill="#273f69" d="M 285.605469 106.152344 C 285.605469 107.726562 285.566406 109.300781 285.488281 110.875 C 285.410156 112.445312 285.296875 114.015625 285.140625 115.582031 C 284.988281 117.148438 284.792969 118.710938 284.5625 120.269531 C 284.332031 121.824219 284.0625 123.375 283.757812 124.921875 C 283.449219 126.464844 283.105469 128 282.722656 129.527344 C 282.339844 131.054688 281.917969 132.570312 281.460938 134.078125 C 281.003906 135.582031 280.511719 137.078125 279.980469 138.558594 C 279.449219 140.042969 278.882812 141.511719 278.28125 142.964844 C 277.679688 144.417969 277.042969 145.859375 276.367188 147.28125 C 275.695312 148.703125 274.988281 150.109375 274.246094 151.5 C 273.503906 152.886719 272.726562 154.257812 271.917969 155.605469 C 271.109375 156.957031 270.265625 158.285156 269.394531 159.597656 C 268.519531 160.90625 267.613281 162.191406 266.675781 163.457031 C 265.734375 164.71875 264.769531 165.960938 263.769531 167.179688 C 262.769531 168.394531 261.742188 169.585938 260.683594 170.753906 C 259.628906 171.917969 258.542969 173.058594 257.429688 174.171875 C 256.316406 175.285156 255.175781 176.371094 254.011719 177.429688 C 252.84375 178.484375 251.652344 179.511719 250.433594 180.511719 C 249.21875 181.511719 247.976562 182.480469 246.714844 183.417969 C 245.449219 184.355469 244.160156 185.261719 242.851562 186.136719 C 241.542969 187.011719 240.214844 187.851562 238.863281 188.660156 C 237.515625 189.472656 236.144531 190.246094 234.757812 190.988281 C 233.367188 191.730469 231.960938 192.4375 230.539062 193.113281 C 229.117188 193.785156 227.675781 194.421875 226.222656 195.023438 C 224.769531 195.628906 223.300781 196.195312 221.816406 196.722656 C 220.335938 197.253906 218.839844 197.75 217.335938 198.203125 C 215.828125 198.660156 214.3125 199.082031 212.785156 199.464844 C 211.257812 199.847656 209.722656 200.191406 208.175781 200.5 C 206.632812 200.804688 205.082031 201.074219 203.523438 201.304688 C 201.96875 201.535156 200.40625 201.730469 198.839844 201.882812 C 197.273438 202.039062 195.703125 202.152344 194.128906 202.230469 C 192.558594 202.308594 190.984375 202.347656 189.410156 202.347656 C 187.835938 202.347656 186.261719 202.308594 184.691406 202.230469 C 183.117188 202.152344 181.550781 202.039062 179.980469 201.882812 C 178.414062 201.730469 176.855469 201.535156 175.296875 201.304688 C 173.738281 201.074219 172.1875 200.804688 170.644531 200.5 C 169.101562 200.191406 167.566406 199.847656 166.039062 199.464844 C 164.511719 199.082031 162.992188 198.660156 161.488281 198.203125 C 159.980469 197.75 158.488281 197.253906 157.003906 196.722656 C 155.523438 196.195312 154.054688 195.628906 152.597656 195.023438 C 151.144531 194.421875 149.707031 193.785156 148.28125 193.113281 C 146.859375 192.4375 145.453125 191.730469 144.066406 190.988281 C 142.675781 190.246094 141.308594 189.472656 139.957031 188.660156 C 138.605469 187.851562 137.277344 187.011719 135.96875 186.136719 C 134.660156 185.261719 133.371094 184.355469 132.109375 183.417969 C 130.84375 182.480469 129.601562 181.511719 128.386719 180.511719 C 127.167969 179.511719 125.976562 178.484375 124.8125 177.429688 C 123.644531 176.371094 122.503906 175.285156 121.390625 174.171875 C 120.277344 173.058594 119.195312 171.917969 118.136719 170.753906 C 117.078125 169.585938 116.050781 168.394531 115.050781 167.179688 C 114.054688 165.960938 113.085938 164.71875 112.148438 163.457031 C 111.210938 162.191406 110.304688 160.90625 109.429688 159.597656 C 108.554688 158.285156 107.710938 156.957031 106.902344 155.605469 C 106.09375 154.257812 105.316406 152.886719 104.574219 151.5 C 103.832031 150.109375 103.125 148.703125 102.453125 147.28125 C 101.78125 145.859375 101.140625 144.417969 100.539062 142.964844 C 99.9375 141.511719 99.371094 140.042969 98.839844 138.558594 C 98.308594 137.078125 97.816406 135.582031 97.359375 134.078125 C 96.902344 132.570312 96.484375 131.054688 96.101562 129.527344 C 95.71875 128 95.371094 126.464844 95.066406 124.921875 C 94.757812 123.375 94.488281 121.824219 94.257812 120.269531 C 94.027344 118.710938 93.835938 117.148438 93.679688 115.582031 C 93.527344 114.015625 93.410156 112.445312 93.332031 110.875 C 93.257812 109.300781 93.21875 107.726562 93.21875 106.152344 C 93.21875 104.578125 93.257812 103.007812 93.332031 101.433594 C 93.410156 99.863281 93.527344 98.292969 93.679688 96.726562 C 93.835938 95.160156 94.027344 93.597656 94.257812 92.039062 C 94.488281 90.480469 94.757812 88.929688 95.066406 87.386719 C 95.371094 85.84375 95.71875 84.308594 96.101562 82.78125 C 96.484375 81.253906 96.902344 79.738281 97.359375 78.230469 C 97.816406 76.722656 98.308594 75.230469 98.839844 73.746094 C 99.371094 72.265625 99.9375 70.796875 100.539062 69.34375 C 101.140625 67.886719 101.78125 66.449219 102.453125 65.027344 C 103.125 63.601562 103.832031 62.195312 104.574219 60.808594 C 105.316406 59.421875 106.09375 58.050781 106.902344 56.699219 C 107.710938 55.351562 108.554688 54.019531 109.429688 52.710938 C 110.304688 51.402344 111.210938 50.117188 112.148438 48.851562 C 113.085938 47.585938 114.054688 46.347656 115.050781 45.128906 C 116.050781 43.914062 117.078125 42.722656 118.136719 41.554688 C 119.195312 40.386719 120.277344 39.246094 121.390625 38.136719 C 122.503906 37.023438 123.644531 35.9375 124.8125 34.878906 C 125.976562 33.820312 127.167969 32.792969 128.386719 31.796875 C 129.601562 30.796875 130.84375 29.828125 132.109375 28.890625 C 133.371094 27.953125 134.660156 27.046875 135.96875 26.171875 C 137.277344 25.296875 138.605469 24.457031 139.957031 23.644531 C 141.308594 22.835938 142.675781 22.0625 144.066406 21.320312 C 145.453125 20.578125 146.859375 19.867188 148.28125 19.195312 C 149.707031 18.523438 151.144531 17.886719 152.597656 17.28125 C 154.054688 16.679688 155.523438 16.113281 157.003906 15.582031 C 158.488281 15.054688 159.980469 14.558594 161.488281 14.101562 C 162.992188 13.644531 164.511719 13.226562 166.039062 12.84375 C 167.566406 12.460938 169.101562 12.117188 170.644531 11.808594 C 172.1875 11.5 173.738281 11.234375 175.296875 11 C 176.855469 10.769531 178.414062 10.578125 179.980469 10.421875 C 181.550781 10.269531 183.117188 10.152344 184.691406 10.078125 C 186.261719 10 187.835938 9.960938 189.410156 9.960938 C 190.984375 9.960938 192.558594 10 194.128906 10.078125 C 195.703125 10.152344 197.273438 10.269531 198.839844 10.421875 C 200.40625 10.578125 201.96875 10.769531 203.523438 11 C 205.082031 11.234375 206.632812 11.5 208.175781 11.808594 C 209.722656 12.117188 211.257812 12.460938 212.785156 12.84375 C 214.3125 13.226562 215.828125 13.644531 217.335938 14.101562 C 218.839844 14.558594 220.335938 15.054688 221.816406 15.582031 C 223.300781 16.113281 224.769531 16.679688 226.222656 17.28125 C 227.675781 17.886719 229.117188 18.523438 230.539062 19.195312 C 231.960938 19.867188 233.367188 20.578125 234.757812 21.320312 C 236.144531 22.0625 237.515625 22.835938 238.863281 23.644531 C 240.214844 24.457031 241.542969 25.296875 242.851562 26.171875 C 244.160156 27.046875 245.449219 27.953125 246.714844 28.890625 C 247.976562 29.828125 249.21875 30.796875 250.433594 31.796875 C 251.652344 32.792969 252.84375 33.820312 254.011719 34.878906 C 255.175781 35.9375 256.316406 37.023438 257.429688 38.136719 C 258.542969 39.246094 259.628906 40.386719 260.683594 41.554688 C 261.742188 42.722656 262.769531 43.914062 263.769531 45.128906 C 264.769531 46.347656 265.734375 47.585938 266.675781 48.851562 C 267.613281 50.117188 268.519531 51.402344 269.394531 52.710938 C 270.265625 54.019531 271.109375 55.351562 271.917969 56.699219 C 272.726562 58.050781 273.503906 59.421875 274.246094 60.808594 C 274.988281 62.195312 275.695312 63.601562 276.367188 65.027344 C 277.042969 66.449219 277.679688 67.886719 278.28125 69.34375 C 278.882812 70.796875 279.449219 72.265625 279.980469 73.746094 C 280.511719 75.230469 281.003906 76.722656 281.460938 78.230469 C 281.917969 79.738281 282.339844 81.253906 282.722656 82.78125 C 283.105469 84.308594 283.449219 85.84375 283.757812 87.386719 C 284.0625 88.929688 284.332031 90.480469 284.5625 92.039062 C 284.792969 93.597656 284.988281 95.160156 285.140625 96.726562 C 285.296875 98.292969 285.410156 99.863281 285.488281 101.433594 C 285.566406 103.007812 285.605469 104.578125 285.605469 106.152344 Z M 285.605469 106.152344 " fill-opacity="1" fill-rule="nonzero"/></g><path fill="#f8fae5" d="M 188.171875 171.519531 C 187.257812 171.519531 186.359375 171.378906 185.460938 171.085938 L 143.914062 157.230469 C 143.160156 159.1875 142.78125 161.710938 142.78125 165.390625 C 145.492188 166.960938 148.136719 170.117188 148.136719 175.554688 C 148.136719 178.890625 146.46875 181.285156 145.039062 182.878906 C 151.199219 190.03125 168.164062 195.171875 188.179688 195.171875 C 213.398438 195.171875 233.835938 187.011719 233.835938 176.960938 C 233.835938 174.742188 233.835938 165.671875 233.835938 156.769531 L 190.871094 171.085938 C 189.988281 171.378906 189.085938 171.519531 188.171875 171.519531 Z M 188.171875 171.519531 " fill-opacity="1" fill-rule="nonzero"/><g clip-path="url(#35aaee8e01)"><path fill="#f8fae5" d="M 257.5625 135.578125 L 189.074219 112.746094 C 188.480469 112.554688 187.859375 112.554688 187.269531 112.746094 L 118.785156 135.578125 C 117.621094 135.964844 116.832031 137.054688 116.832031 138.28125 C 116.832031 139.507812 117.621094 140.597656 118.785156 140.988281 L 134.484375 146.222656 C 130.871094 150.410156 128.769531 156.316406 128 165.929688 C 125.519531 167.097656 123.765625 169.59375 123.765625 172.527344 C 123.765625 175.511719 125.558594 178.050781 128.113281 179.199219 C 125.882812 198.628906 114.246094 205.109375 114.246094 206.769531 C 114.246094 207.613281 123.257812 212.476562 125.398438 212.476562 C 128.707031 212.476562 136.652344 206.859375 136.652344 194.734375 C 136.652344 187.585938 136.007812 182.1875 135.328125 178.359375 C 137.160156 177.027344 138.433594 174.96875 138.433594 172.527344 C 138.433594 169.859375 136.945312 167.632812 134.816406 166.351562 C 136.019531 150.488281 140.921875 147.835938 152.78125 142.917969 C 153.96875 142.449219 156.210938 141.542969 157.507812 141.003906 C 159.835938 140.046875 161.941406 139.191406 163.960938 138.378906 C 170.484375 135.789062 176 133.703125 180.207031 132.160156 C 184.8125 130.515625 186.878906 129.914062 186.953125 129.894531 C 188.714844 129.300781 190.679688 130.253906 191.28125 132.050781 C 191.882812 133.84375 190.921875 135.78125 189.125 136.386719 C 188.988281 136.433594 180.976562 138.722656 160.128906 147.339844 C 158.785156 147.894531 157.507812 148.394531 156.292969 148.875 C 153.820312 149.851562 151.773438 150.632812 150.054688 151.421875 L 187.269531 163.820312 C 187.566406 163.914062 187.863281 163.964844 188.171875 163.964844 C 188.480469 163.964844 188.777344 163.914062 189.074219 163.816406 L 257.5625 140.988281 C 258.726562 140.597656 259.511719 139.507812 259.511719 138.28125 C 259.511719 137.054688 258.726562 135.964844 257.5625 135.578125 Z M 257.5625 135.578125 " fill-opacity="1" fill-rule="nonzero"/></g><path fill="#f8fae5" d="M 208.246094 248.824219 L 169.710938 248.824219 C 169.710938 250.109375 169.710938 253.960938 169.710938 255.246094 C 169.710938 266.164062 178.058594 268.089844 188.980469 268.089844 C 199.898438 268.089844 208.246094 266.164062 208.246094 255.246094 C 208.246094 253.960938 208.246094 250.109375 208.246094 248.824219 Z M 208.246094 248.824219 " fill-opacity="1" fill-rule="nonzero"/><g clip-path="url(#3c01ab028a)"><path fill="#f8fae5" d="M 198.613281 261.667969 L 179.34375 261.667969 C 179.34375 262.3125 179.34375 264.238281 179.34375 264.878906 C 179.34375 270.019531 183.839844 274.515625 188.980469 274.515625 C 194.117188 274.515625 198.613281 270.019531 198.613281 264.878906 C 198.613281 264.238281 198.613281 262.3125 198.613281 261.667969 Z M 198.613281 261.667969 " fill-opacity="1" fill-rule="nonzero"/></g></svg>